<svg width="280" height="280" viewBox="0 0 280 280" fill="none" xmlns="http://www.w3.org/2000/svg">
<path d="M183.03 48.7481C183.03 48.7481 151.068 89.2336 99.929 65.0847C48.7902 40.9358 -2.34869 106.28 41.6876 146.054C85.7239 185.829 42.6311 207.685 72.5475 232.061C106.55 259.767 136.152 203.585 163.142 216.37C222.71 244.587 266.84 233.417 256.897 200.745C239.442 143.393 217.123 139.663 234.168 109.831C251.214 79.9996 213.593 17.9741 183.03 48.7481Z" fill="#DEE9FF"/>
<path d="M141.111 135.285V220.223L75.1637 191.739L75.4783 107.108L141.111 135.285Z" fill="#418DF9"/>
<path d="M141.112 135.336V220.274L206.738 192.773V107.379L141.112 135.336Z" fill="#A2BDFF"/>
<path d="M141.111 135.285L207.058 107.663L141.629 78.6604L75.1637 106.973L141.111 135.285Z" fill="#0E84E5"/>
<path d="M57.1546 122.125L123.522 154.339C123.7 154.425 123.902 154.451 124.096 154.412C124.291 154.372 124.467 154.27 124.597 154.121L141.111 135.285L75.1636 106.973L57.0069 120.587C56.8827 120.68 56.7846 120.803 56.7219 120.945C56.6592 121.087 56.6341 121.243 56.6489 121.397C56.6638 121.552 56.718 121.7 56.8066 121.827C56.8951 121.954 57.015 122.057 57.1546 122.125Z" fill="#699CFF"/>
<path d="M207.058 107.663L225.373 124.222C225.485 124.323 225.57 124.45 225.62 124.592C225.67 124.735 225.684 124.887 225.66 125.036C225.637 125.184 225.576 125.325 225.485 125.444C225.393 125.564 225.273 125.659 225.135 125.72L159.586 154.975C159.411 155.053 159.216 155.073 159.029 155.033C158.841 154.993 158.671 154.895 158.543 154.752L141.111 135.285L207.058 107.663Z" fill="#699CFF"/>
<path d="M141.628 78.6604L207.241 107.663L216.677 105.476C216.863 105.433 217.03 105.333 217.155 105.189C217.28 105.046 217.357 104.866 217.374 104.677C217.391 104.487 217.348 104.297 217.251 104.133C217.154 103.969 217.008 103.84 216.833 103.764L156.92 77.8043C156.789 77.7474 156.647 77.7225 156.504 77.7315L141.628 78.6604Z" fill="#699CFF"/>
<path d="M141.629 78.6603L76.3837 107.108L68.1359 105.722C67.9449 105.686 67.7705 105.59 67.6384 105.448C67.5062 105.305 67.4235 105.124 67.4023 104.931C67.3811 104.738 67.4225 104.543 67.5206 104.375C67.6186 104.208 67.768 104.076 67.9467 104L129.34 77.5417C129.476 77.484 129.623 77.4603 129.77 77.4727L141.629 78.6603Z" fill="#699CFF"/>
<path d="M209.63 207.03C218.627 207.03 225.92 199.737 225.92 190.741C225.92 181.745 218.627 174.452 209.63 174.452C200.634 174.452 193.341 181.745 193.341 190.741C193.341 199.737 200.634 207.03 209.63 207.03Z" fill="#418DF9" stroke="white" stroke-width="15" stroke-miterlimit="10"/>
<path d="M214.808 185.913C214.538 184.978 214.162 184.218 213.677 183.639C213.209 183.074 212.601 182.64 211.914 182.381C210.432 181.87 208.821 181.87 207.339 182.381C206.653 182.639 206.047 183.073 205.583 183.639C205.092 184.218 204.715 184.978 204.452 185.913C204.19 186.849 204.055 187.992 204.055 189.338V192.083C204.055 193.429 204.19 194.573 204.459 195.515C204.67 196.352 205.058 197.134 205.596 197.809C206.064 198.381 206.671 198.821 207.359 199.088C208.834 199.617 210.447 199.617 211.921 199.088C212.606 198.821 213.209 198.38 213.671 197.809C214.201 197.131 214.584 196.349 214.795 195.515C215.057 194.573 215.192 193.429 215.192 192.083H215.206V189.338C215.205 187.992 215.07 186.849 214.808 185.913ZM212.352 192.493C212.361 193.226 212.302 193.958 212.177 194.68C212.092 195.194 211.916 195.688 211.659 196.14C211.46 196.489 211.166 196.774 210.811 196.961C210.446 197.137 210.045 197.225 209.64 197.217C209.236 197.223 208.835 197.136 208.469 196.961C208.11 196.773 207.809 196.489 207.601 196.14C207.338 195.689 207.156 195.195 207.063 194.68C206.926 193.96 206.863 193.227 206.875 192.493V188.9C206.863 188.17 206.924 187.439 207.057 186.72C207.145 186.216 207.326 185.733 207.589 185.294C207.797 184.958 208.096 184.688 208.45 184.513C208.817 184.354 209.213 184.271 209.614 184.271C210.015 184.271 210.411 184.354 210.778 184.513C211.135 184.684 211.435 184.955 211.639 185.294C211.902 185.733 212.083 186.216 212.171 186.72C212.304 187.439 212.365 188.17 212.353 188.9V192.493H212.352Z" fill="white"/>
</svg>
