<svg width="212" height="214" viewBox="0 0 212 214" fill="none" xmlns="http://www.w3.org/2000/svg">
<path d="M68.7913 208.485C83.648 217.44 94.2467 213.723 98.3043 206.542C106.151 192.655 132.242 164.258 173.587 154.66C228.348 141.948 216.912 108.196 183.248 90.4843C149.585 72.7726 124.414 48.2652 128.224 21.6177C132.034 -5.02973 94.288 -14.216 77.502 37.0448C66.6545 70.1714 47.2151 79.0462 34.819 81.1795C23.1358 83.19 10.3559 85.7127 4.12382 95.7971C-3.43842 108.033 -0.799562 120.411 30.8619 128.9C75.7292 140.93 35.4911 188.413 68.7913 208.485Z" fill="#DEE9FF"/>
<path d="M30.1905 150.424C30.8193 150.064 37.9156 147.06 73.2186 163.518C73.1157 163.658 73.072 163.724 73.072 163.724C73.072 163.724 36.3711 176.084 29.1803 160.858C27.033 156.325 27.6483 153.203 30.1292 150.459L30.1905 150.424Z" fill="#0E84E5"/>
<path d="M148.847 156.652C141.177 163.1 129.149 167.78 117.543 161.557C119.377 160.385 121.271 159.178 123.203 157.929C134.858 150.44 145.125 155.451 148.847 156.652Z" fill="#0E84E5"/>
<path d="M162.585 77.3489C170.421 142.601 151.799 154.443 149.726 156.242C149.125 156.763 148.882 156.725 147.975 156.491L147.959 156.5C144.118 155.482 134.859 150.44 123.203 157.928C121.271 159.177 119.376 160.384 117.542 161.556C105.652 169.097 96.0505 174.411 89.1329 171.327C83.2654 168.333 77.9749 165.743 73.2187 163.518C37.9157 147.06 30.8194 150.064 30.1907 150.424C30.9202 150.027 37.6126 146.317 46.6239 139.793C46.6545 139.776 46.6852 139.758 46.6918 139.734C58.7365 131.005 74.8669 117.249 86.4614 99.5541C94.3545 87.5214 102.076 57.0171 116.975 51.0318C147.594 39.6092 161.314 64.0763 162.585 77.3489Z" fill="#699CFF"/>
<path d="M128.728 76.2041C129.679 73.6943 129.586 71.3329 128.521 70.9297C127.457 70.5264 125.823 72.2341 124.872 74.7439C123.922 77.2536 124.015 79.6151 125.079 80.0183C126.144 80.4215 127.778 78.7138 128.728 76.2041Z" fill="white"/>
<path d="M148.224 79.4063C148.898 76.8085 148.551 74.4709 147.448 74.1851C146.346 73.8994 144.907 75.7736 144.233 78.3715C143.56 80.9693 143.907 83.3069 145.009 83.5927C146.111 83.8784 147.551 82.0041 148.224 79.4063Z" fill="white"/>
<path d="M136.357 88.9446C136.197 88.9444 136.042 88.8897 135.918 88.7894C135.794 88.6891 135.708 88.5493 135.674 88.3933C135.549 87.8282 134.994 86.1564 134.113 85.9079C133.233 85.6594 131.506 86.6241 130.807 87.1302C130.657 87.2391 130.47 87.2838 130.286 87.2545C130.103 87.2252 129.939 87.1242 129.83 86.9738C129.721 86.8234 129.676 86.636 129.706 86.4526C129.735 86.2693 129.836 86.1051 129.986 85.9962C130.262 85.7969 132.728 84.0621 134.493 84.5604C136.335 85.0801 136.975 87.7883 137.041 88.0955C137.064 88.1978 137.063 88.3037 137.039 88.4056C137.015 88.5074 136.968 88.6026 136.902 88.684C136.837 88.7655 136.754 88.8312 136.659 88.8763C136.565 88.9214 136.461 88.9447 136.357 88.9446H136.357Z" fill="white"/>
</svg>
